<svg version="1.2" xmlns="http://www.w3.org/2000/svg" viewBox="0 0 75 70" width="75" height="70"><style>.a{fill:#81b3d2}</style><path fill-rule="evenodd" class="a" d="m75 51v3.5c0 2.4-1.9 4.3-4.1 4.3h-1v1.1c0 5.5-4.3 10.1-9.6 10.1h-44.7c-5.3 0-9.6-4.6-9.6-10.1v-1.1h-0.9c-2.3 0-4.2-1.9-4.2-4.3v-3.5c0-2.4 1.9-4.3 4.2-4.3h65.8c2.2 0 4.1 1.9 4.1 4.3zm-8 7.8h-58.1v1.1c0 3.9 3 7 6.7 7h44.7c3.7 0 6.7-3.1 6.7-7 0 0 0-1.1 0-1.1zm5.1-7.8c0-0.7-0.6-1.2-1.2-1.2h-65.8c-0.7 0-1.3 0.5-1.3 1.2v3.5c0 0.7 0.6 1.3 1.3 1.3h65.8c0.6 0 1.2-0.6 1.2-1.3z"/><path class="a" d="m16.6 38.4l5.4 4.1 5.3-4.1 5.3 4.1 5.3-4.1 5.4 4.1 5.3-4.1 5.3 4.1 5.4-4.1 5.3 4.1 6.2-4.7-1.7-2.5-4.5 3.4-5.3-4.1-5.4 4.1-5.3-4.1-5.3 4.1-5.4-4.1-5.3 4.1-5.3-4.1-5.3 4.1-5.4-4.1-5.3 4.1-4.5-3.4-1.7 2.5 6.2 4.7z"/><path fill-rule="evenodd" class="a" d="m6.1 31.5q-0.1-0.9-0.1-1.8 0-0.6 0-1.2c0.7-15.8 14.7-28.5 32-28.5 17.2 0 31.2 12.7 31.9 28.5q0 0.6 0 1.2 0 0.9 0 1.8zm2.8-3h58.1c-0.7-14.1-13.5-25.5-29-25.5-15.6 0-28.4 11.4-29.1 25.5z"/><path class="a" d="m38 17.3c-1.1 0-2-0.9-2-2 0-1.2 0.9-2.1 2-2.1 1 0 1.9 0.9 1.9 2.1 0 1.1-0.9 2-1.9 2z"/><path class="a" d="m30.2 12.3c-1.1 0-2-0.9-2-2.1 0-1.1 0.9-2 2-2 1 0 1.9 0.9 1.9 2 0 1.2-0.9 2.1-1.9 2.1z"/><path class="a" d="m45.7 12.3c-1 0-1.9-0.9-1.9-2.1 0-1.1 0.9-2 1.9-2 1.1 0 2 0.9 2 2 0 1.2-0.9 2.1-2 2.1z"/></svg>