<svg version="1.2" xmlns="http://www.w3.org/2000/svg" viewBox="0 0 75 72" width="75" height="72"><style>.a{fill:#81b3d2}</style><path fill-rule="evenodd" class="a" d="m29.7 41.2h16v23.8h-16zm2.9 20.9h10.1v-17.9h-10.1z"/><path fill-rule="evenodd" class="a" d="m64.9 31.5v37.6h5.1v2.9h-63.9v-2.9h4v-37.6l-7.9 7.8-2-2.1 37.3-37.2 13.6 13.6v-13.6h13.8v27.3l9.9 9.9-2 2.1zm-3-3l-24.5-24.4-24.5 24.4v40.6h49zm0-25.6h-7.9v13.5l7.9 7.9z"/><path fill-rule="evenodd" class="a" d="m37.7 19.4c4.2 0 7.7 3.4 7.7 7.7 0 4.2-3.5 7.7-7.7 7.7-4.3 0-7.8-3.5-7.8-7.7 0-4.3 3.5-7.7 7.8-7.7zm-5 7.7c0 2.7 2.2 4.9 5 4.9 2.7 0 4.9-2.2 4.9-4.9 0-2.8-2.2-5-4.9-5-2.8 0-5 2.2-5 5z"/><path class="a" d="m17.1 41.2h3v3.9h-3z"/><path class="a" d="m23 41.2h3v3.9h-3z"/><path class="a" d="m17.1 47.2h3v3.9h-3z"/><path class="a" d="m23 47.2h3v3.9h-3z"/><path class="a" d="m49 41.2h3v3.9h-3z"/><path class="a" d="m54.9 41.2h3v3.9h-3z"/><path class="a" d="m49 47.2h3v3.9h-3z"/><path class="a" d="m54.9 47.2h3v3.9h-3z"/></svg>