<svg version="1.2" xmlns="http://www.w3.org/2000/svg" viewBox="0 0 114 39" width="114" height="39"><style>.a{fill:#000000}</style><path fill-rule="evenodd" class="a" d="m46.8 28.2q0.1 0 0.2 0 0.1 0 0.1 0 0.1 0 0.2 0 0-0.1 0.1-0.1v1.4q-0.1 0.1-0.3 0.1-0.1 0.1-0.3 0.1-0.1 0-0.3 0-0.2 0-0.3 0-0.3 0.1-0.6 0-0.2-0.1-0.5-0.2-0.2-0.1-0.4-0.3-0.2-0.2-0.3-0.5-0.3 0.3-0.7 0.5-0.4 0.2-0.8 0.4-0.4 0.1-0.9 0.2-0.4 0.1-0.9 0.1c-1.6 0-3-0.9-3-2.7 0-2.3 2-3 3.9-3q0.3 0.1 0.5 0.1 0.3 0 0.6 0 0.3 0.1 0.6 0.1 0.3 0 0.5 0.1v-0.3c0-1.1-0.8-1.9-2.3-1.9q-0.4 0-0.8 0.1-0.4 0-0.8 0.1-0.4 0.1-0.7 0.2-0.4 0.1-0.8 0.3v-1.8q0.4-0.1 0.8-0.2 0.4-0.1 0.9-0.2 0.4-0.1 0.8-0.1 0.4-0.1 0.8-0.1c2.5 0 4 1.2 4 3.9v3.1q0 0.1 0.1 0.3 0 0.1 0.1 0.2 0.1 0.1 0.3 0.1 0.1 0 0.2 0zm-6.7-1.2q0 0.3 0.1 0.6 0.2 0.2 0.4 0.4 0.3 0.2 0.5 0.3 0.3 0.1 0.6 0 0.4 0 0.7 0 0.4-0.1 0.7-0.2 0.3-0.2 0.6-0.3 0.3-0.2 0.5-0.5v-1.5q-0.2 0-0.4-0.1-0.3 0-0.5 0-0.2-0.1-0.5-0.1-0.2 0-0.5 0c-1.1 0-2.2 0.3-2.2 1.4z"/><path class="a" d="m53.1 20.6q0.3 0 0.7 0.1 0.3 0 0.7 0.1 0.3 0.1 0.6 0.2 0.4 0.1 0.7 0.3v1.8q-0.3-0.2-0.6-0.3-0.3-0.2-0.6-0.3-0.3-0.1-0.6-0.1-0.3-0.1-0.7-0.1c-0.8 0-1.6 0.3-2.2 0.8-0.6 0.6-0.9 1.3-0.9 2.1 0 0.8 0.3 1.6 0.9 2.2 0.6 0.5 1.4 0.8 2.2 0.7q0.4 0 0.7 0 0.3-0.1 0.7-0.2 0.3 0 0.6-0.2 0.3-0.1 0.6-0.3v1.8q-0.3 0.2-0.7 0.3-0.4 0.1-0.7 0.2-0.4 0.1-0.8 0.1-0.3 0-0.7 0-0.9 0.1-1.8-0.2-0.9-0.3-1.6-1-0.6-0.6-1-1.5-0.4-0.9-0.3-1.8-0.1-1 0.3-1.8 0.4-0.9 1-1.6 0.7-0.7 1.6-1 0.9-0.3 1.9-0.3z"/><path fill-rule="evenodd" class="a" d="m65.8 28.2q0.1 0 0.2 0 0.1 0 0.1 0 0.1 0 0.2 0 0-0.1 0.1-0.1v1.4q-0.1 0.1-0.3 0.1-0.1 0.1-0.3 0.1-0.1 0-0.3 0-0.2 0-0.3 0-0.3 0.1-0.6 0-0.2-0.1-0.5-0.2-0.2-0.1-0.4-0.3-0.2-0.2-0.3-0.5-0.3 0.3-0.7 0.5-0.4 0.2-0.8 0.4-0.4 0.1-0.9 0.2-0.4 0.1-0.9 0.1c-1.6 0-3-0.9-3-2.7 0-2.3 2-3 3.9-3q0.3 0.1 0.5 0.1 0.3 0 0.6 0 0.3 0.1 0.6 0.1 0.3 0 0.5 0.1v-0.3c0-1.1-0.8-1.9-2.3-1.9q-0.4 0-0.8 0.1-0.4 0-0.8 0.1-0.4 0.1-0.7 0.2-0.4 0.1-0.8 0.3v-1.8q0.4-0.1 0.8-0.2 0.4-0.1 0.9-0.2 0.4-0.1 0.8-0.1 0.4-0.1 0.8-0.1c2.5 0 4 1.2 4 3.9v3.1q0 0.1 0.1 0.3 0 0.1 0.1 0.2 0.1 0.1 0.3 0.1 0.1 0 0.2 0zm-6.7-1.2q0 0.3 0.1 0.6 0.2 0.2 0.4 0.4 0.3 0.2 0.5 0.3 0.3 0.1 0.6 0 0.4 0 0.7 0 0.4-0.1 0.7-0.2 0.3-0.2 0.6-0.3 0.3-0.2 0.5-0.5v-1.5q-0.2 0-0.4-0.1-0.3 0-0.5 0-0.2-0.1-0.5-0.1-0.2 0-0.5 0c-1.1 0-2.2 0.3-2.2 1.4z"/><path fill-rule="evenodd" class="a" d="m76.7 16.8v12.8h-1.8v-1.4q-0.3 0.4-0.7 0.7-0.3 0.3-0.8 0.5-0.4 0.2-0.9 0.3-0.5 0.2-0.9 0.1c-1.2 0-2.3-0.6-3.1-1.4-0.8-0.9-1.3-2-1.3-3.2 0-1.1 0.5-2.3 1.3-3.1 0.8-0.9 1.9-1.4 3.1-1.5q0.4 0 0.8 0.1 0.5 0.1 0.9 0.2 0.4 0.2 0.8 0.5 0.3 0.3 0.6 0.6v-5.2zm-4.8 5.5c-0.7 0-1.5 0.3-2 0.9-0.5 0.5-0.9 1.3-0.9 2 0 0.8 0.4 1.5 0.9 2.1 0.5 0.5 1.3 0.8 2 0.8q0.5 0 0.9-0.1 0.5-0.1 0.8-0.4 0.4-0.2 0.7-0.6 0.3-0.3 0.4-0.7v-2.1q-0.1-0.4-0.4-0.8-0.3-0.3-0.7-0.6-0.4-0.2-0.8-0.3-0.4-0.2-0.9-0.2z"/><path fill-rule="evenodd" class="a" d="m83 20.6c3.5 0 4.7 2.8 4.1 5.4h-6.6c0.2 1.5 1.8 2.2 3.4 2.2q0.3 0 0.7-0.1 0.4 0 0.7-0.1 0.3-0.1 0.7-0.2 0.3-0.1 0.6-0.2v1.6q-0.3 0.2-0.7 0.3-0.4 0.1-0.8 0.2-0.4 0.1-0.8 0.1-0.4 0.1-0.8 0c-2.7 0-5-1.5-5-4.6q0-0.9 0.3-1.7 0.3-0.9 0.9-1.6 0.7-0.6 1.5-1 0.9-0.3 1.8-0.3zm0.1 1.6q-0.5 0-1 0.2-0.4 0.1-0.8 0.4-0.3 0.3-0.6 0.8-0.2 0.4-0.2 0.9h4.9q0-0.5-0.1-0.9-0.2-0.4-0.5-0.8-0.4-0.3-0.8-0.5-0.5-0.1-0.9-0.1z"/><path class="a" d="m89.1 29.6v-8.7h1.7v1q0.3-0.3 0.6-0.5 0.4-0.2 0.8-0.4 0.3-0.2 0.7-0.3 0.4-0.1 0.8-0.1 0.5 0 0.9 0.1 0.3 0.1 0.7 0.2 0.4 0.2 0.7 0.5 0.3 0.3 0.5 0.6 0.3-0.3 0.6-0.6 0.4-0.2 0.8-0.4 0.4-0.2 0.8-0.3 0.4-0.1 0.8-0.1 0.7 0 1.4 0.3 0.6 0.2 1.1 0.7 0.5 0.5 0.7 1.2 0.2 0.6 0.2 1.3v5.5h-2v-5.4q0-0.4-0.1-0.7-0.1-0.4-0.4-0.6-0.2-0.3-0.6-0.4-0.3-0.2-0.7-0.1-0.3 0-0.6 0.1-0.3 0.1-0.6 0.2-0.3 0.2-0.5 0.4-0.2 0.2-0.4 0.4 0 0.3 0 0.6v5.5h-2v-5.4q0-0.4-0.1-0.7-0.1-0.4-0.4-0.6-0.2-0.3-0.6-0.4-0.3-0.2-0.7-0.1-0.3 0-0.6 0.1-0.4 0.1-0.7 0.3-0.3 0.1-0.5 0.4-0.3 0.2-0.5 0.5v5.9h-2z"/><path class="a" d="m111.5 20.9h2l-4.1 9.9c-1 2.3-2.2 3-3.6 3q-0.1 0-0.2 0-0.2 0-0.3-0.1-0.2 0-0.3 0-0.2 0-0.3-0.1v-1.6q0.1 0 0.2 0 0.1 0.1 0.2 0.1 0.2 0 0.3 0 0.1 0 0.2 0 1.4 0 2.2-2l0.1-0.4-4.1-8.9h2.1l3 6.6z"/><path class="a" d="m40.7 1.5v5q0.2-0.3 0.6-0.5 0.3-0.2 0.7-0.4 0.3-0.1 0.7-0.2 0.4-0.1 0.8-0.1 0.7 0 1.4 0.2 0.7 0.3 1.2 0.8 0.5 0.5 0.8 1.2 0.2 0.7 0.2 1.4v5.4h-2v-5.2q0-0.4-0.1-0.8-0.1-0.4-0.4-0.7-0.3-0.3-0.7-0.4-0.4-0.2-0.8-0.2-0.4 0.1-0.7 0.2-0.4 0.1-0.7 0.3-0.3 0.2-0.6 0.4-0.2 0.3-0.4 0.6v5.8h-2v-12.8z"/><path class="a" d="m52.4 2.4v3.1h3.2v1.7h-3.2v4c0 1.2 0.6 1.6 1.7 1.6q0.2 0 0.4 0 0.3-0.1 0.5-0.1 0.2-0.1 0.4-0.1 0.2-0.1 0.5-0.2v1.7q-0.3 0.1-0.6 0.2-0.3 0.1-0.6 0.1-0.3 0-0.6 0.1-0.3 0-0.6 0-0.6 0.1-1.2-0.1-0.5-0.2-1-0.6-0.4-0.5-0.6-1-0.2-0.6-0.2-1.2v-4.4h-1.6v-1.7h1.6v-2.6z"/><path class="a" d="m58.1 14.3v-8.8h1.7v1.1q0.3-0.3 0.6-0.5 0.4-0.3 0.8-0.4 0.3-0.2 0.7-0.3 0.4-0.1 0.8-0.1 0.5 0 0.9 0.1 0.3 0 0.7 0.2 0.4 0.2 0.7 0.5 0.3 0.3 0.5 0.6 0.3-0.3 0.6-0.6 0.4-0.2 0.8-0.4 0.4-0.2 0.8-0.3 0.4-0.1 0.8-0.1 0.7 0 1.4 0.2 0.6 0.3 1.1 0.8 0.5 0.5 0.7 1.2 0.2 0.6 0.2 1.3v5.5h-2v-5.4q0-0.4-0.1-0.7-0.1-0.4-0.4-0.6-0.2-0.3-0.6-0.4-0.3-0.2-0.7-0.2-0.3 0.1-0.6 0.1-0.3 0.1-0.6 0.3-0.3 0.1-0.5 0.4-0.2 0.2-0.4 0.4 0 0.3 0 0.6v5.5h-2v-5.4q0-0.4-0.1-0.7-0.1-0.4-0.4-0.6-0.2-0.3-0.6-0.4-0.3-0.2-0.7-0.2-0.3 0.1-0.6 0.2-0.4 0.1-0.7 0.3-0.3 0.1-0.5 0.4-0.3 0.2-0.5 0.5v5.9h-2z"/><path class="a" d="m74.7 1.5h2v12.8h-2z"/><path fill-rule="evenodd" class="a" d="m30.6 1.6v28l-15.3 9.1-15.3-9.1v-28l15.3-1.6h0.1zm-2 15.2l-4.1 2.4v5.9l-9.1 5.5-9.2-5.4v-1.4l9.1 5.4v-1.5l-9.1-5.4v-1.4l9.1 5.4v-1.4l-13.2-7.9v11.5l13.3 7.9 13.2-7.9zm-13.3-9.3l-13.2 7.9 13.2 7.8 2.3-1.4-2.3-1.3v-1.3l3.4 2 1.1-0.7-4.5-2.7v-1.4l5.6 3.4 1-0.6 0.2-0.1-6.8-4v-1.4l8 4.7 1.7-1 3.6-2.1zm13.4-4l-13.3-1.4-13.3 1.4v10.5l13.2-7.9 13.4 7.9c0 0 0-10.5 0-10.5z"/></svg>