<svg version="1.2" xmlns="http://www.w3.org/2000/svg" viewBox="0 0 64 76" width="64" height="76"><style>.a{fill:#81b3d2}</style><path fill-rule="evenodd" class="a" d="m64 25.4v11.3c0 1.6-1.3 2.9-2.9 2.9h-0.1v36.4h-57.8v-36.4h-0.3c-1.6 0-2.9-1.3-2.9-2.9v-11.3c0-1.6 1.3-2.9 2.9-2.9h22.4c-4.9-2.7-12.3-6.1-14.6-11.5-2.3-5.6 3.4-10.6 7.5-11 2.6-0.2 4.5 0.9 5.7 2.1 4.4 3.9 6.2 11.6 8.2 17.7 1.5-6 3-14.3 8.6-16.4 4.3-1.6 8.9 1.5 10 5.4 0.5 2.4-0.6 6.8-14.4 13.7h24.8c1.6 0 2.9 1.3 2.9 2.9zm-28.7-5.8c2.4-1.4 4.8-2.3 7.3-4 1.7-1.2 5.5-3.7 5.1-6.4-0.3-2-3.2-3.6-5.3-3.3-4.6 0.7-6.2 10-7.1 13.7zm-6.3 1.2c-1.4-5.4-3.2-13.2-7.1-16.5-3.1-2.7-8.7 0.2-8.8 3.8-0.1 3.4 4.2 6.3 6.4 7.8 3.2 2.1 6.3 3.4 9.5 4.9zm-3.5 18.8h-19.4v33.4h19.4c0 0 0-33.4 0-33.4zm0-14.1h-22.5v11h22.5zm10.2 0h-7.2v47.5h7.2zm22.3 14h-19.4v33.5h19.4zm2.9-14h-22.3v11h22.3z"/></svg>