<svg version="1.2" xmlns="http://www.w3.org/2000/svg" viewBox="0 0 457 352" width="457" height="352"><style>.a{fill:#766458}.b{fill:#81b3d3}.c{fill:#fff}</style><path fill-rule="evenodd" class="a" d="m155.3 56.1l-2.8 4.9h2.5l-0.9 1.4h-2.5l-6.4 11.2c-0.7 1.1-0.4 1.6 0.3 1.6 1.4 0 3.5-2 5.6-4.5l0.2-0.2 1.2-2 1.5-2.6c1.8-3 3.6-3.9 5.9-3.9 2.8 0 4.5 3 2.7 6.1l-2.9 4.8c1.6 0 3.2-0.7 4.6-2.2l0.2-0.2c0.4 0.2 0.9 0.6 1.1 1-1.5 1.8-4.4 2.9-6.2 2.9h-0.6c-3.3 4.1-8.6 3.4-8.6-0.4-1.9 1.7-3.8 3-5.6 3-2.4 0-3.3-2-2-4.2l6-10.4h-2.7l0.8-1.4h2.8l2.8-4.9zm1.8 9.9l-1.5 2.5-2.3 3.9c-1.8 3.1 1.7 3.5 3.1 1.1-0.2-0.3-0.3-0.7-0.3-1 0-1 0.8-1.8 1.8-1.8h0.1l2.2-3.7c1.1-1.8 0.6-3-0.4-3.1-0.7 0-1.8 0.6-2.7 2.1zm27.7-9.9l-2.9 4.9h2.5l-0.8 1.4h-2.5l-6.5 11.2c-0.7 1.1-0.3 1.6 0.4 1.6 1.3 0 3.4-2 5.6-4.5l0.2-0.2 8.4-14.4h3l-4.8 8.3c1.5-1.6 2.9-2.3 4.2-2.3 1.7 0 2.9 1.6 1.6 3.9l-4.3 7.6c-0.7 1.1-0.4 1.6 0.3 1.6 1.4 0 3.5-2 5.6-4.5l0.2-0.2 3-4.9c1.2-2.2 3.2-3.5 5.6-3.5 2.5 0 4 2.1 2.4 4.8l-0.4 0.8c-2.3 3.8-5.9 4.2-7.9 3.4l-0.3 0.5c-1.4 2.4-0.3 3.6 1.6 3.6 2.1 0 4.9-2 7.1-4.5l0.2-0.2c0.4 0.2 0.9 0.6 1.1 1-2.5 2.9-5.9 5.5-9.3 5.5-2.4 0-4-1.3-4.1-3.2-1.9 1.9-3.9 3.2-5.7 3.2-2.4 0-3.3-2-2.1-4.2l4-6.8c1.3-2.2-0.8-2.9-5.4 2.9l-4.6 7.8h-3.1l0.8-1.3c-1.3 1-2.6 1.6-3.8 1.6-2.5 0-3.4-2-2.1-4.2l6.1-10.4h-2.8l0.9-1.4h2.7l2.9-4.9zm15.7 10.2l-1.9 3.4c1.1 0.4 3 0.4 4.5-2l0.4-0.8c1-1.7 0.5-2.6-0.5-2.6-0.7 0.1-1.7 0.7-2.5 2zm48.4-5.7c-0.6 0.5-0.6 1.1-0.1 1.7l1.6 2c1 1.2 1.5 2.2 0.5 4l-3 5.3c-0.7 1.1-0.4 1.6 0.3 1.6 1.3 0 3.5-2 5.6-4.5l0.2-0.2h0.1l2.8-4.9c1.3-2.2 3.6-3.5 5.2-3.5 1.9 0 3.2 1.6 3.2 2.9h1.8l-6.8 11.4c2.4-1 4.5-2.8 7-5.7l0.2-0.2 2.9-4.9c1.3-2.2 3.2-3.5 5.7-3.5 2.4 0 4 2.1 2.4 4.8l-0.4 0.8c-2.3 3.9-6 4.2-7.9 3.4l-0.3 0.5c-1.4 2.4-0.3 3.6 1.6 3.6 2.1 0 4.9-2 7-4.5l0.2-0.2 1.2-2 1.5-2.6c1.8-3 3.6-3.9 5.9-3.9 2.8 0 4.5 3 2.7 6.1l-2.9 4.8c1.5 0 3.2-0.7 4.6-2.2l0.2-0.2 4.7-8.1h3l-5.8 10.2c-0.4 0.6-1.2 1.7-0.4 2 0.6 0.3 2.3-0.9 4.6-2.9l5.4-9.3h3l-6.4 11.2c-0.7 1.1-0.4 1.6 0.3 1.6 1.3 0 3.5-2 5.6-4.5l0.2-0.2c2.8-3.2 5.5-7.1 6.8-8.8l2.2 1.2c-1.8 3.9-1.6 8.2-2.6 11.1q0.5-0.4 1-0.8 0.5-0.3 0.9-0.7 0.5-0.4 0.9-0.9 0.4-0.4 0.8-0.9l0.2-0.2c0.5 0.1 1 0.6 1.2 1-2.3 2.6-5.3 5-8.4 5.4q-0.1 0.1-0.1 0.1-0.4 0-0.9 0c-2.7 0-3.3-2.4-3.3-2.4l1.9-1c0 0 0.4 1.1 1.4 1.1 2.9 0 2.3-5.5 3.5-8.6-1.1 1.4-2.6 3.5-4.3 5.4-2.5 2.9-5.4 5.5-7.9 5.5-1.9 0-2.9-1.2-2.6-2.8-1.4 1.3-3.3 2.8-4.9 2.8-1.8 0-2.5-1.4-1.7-3.4-1.2 0.5-2.4 0.8-3.4 0.8h-0.6c-3.3 4.1-8.8 3.3-8.6-0.6-2.1 1.9-4.6 3.2-7 3.2-2.5 0-4-1.3-4.1-3.2-2.5 2.4-4.9 3.8-7.4 4.6l-2.3 3.9c-2.2 3.7-6.6 3.1-6.6 0.2 0-2.2 2.5-3.8 6.6-5.1l0.8-1.4c-1 0.7-2 1-2.8 1-1.8 0-2.7-1-2.7-2.4-1.6 1.4-3.3 2.4-4.8 2.4-2.4 0-3.3-2-2.1-4.2l3.2-5.5c0.4-0.6 0.2-1.2-0.1-1.7l-0.4-0.5c-2.5 3.3-3.6 4.8-5 6.4-1.6 1.8-4.4 2.9-6.2 2.9h-0.7c-3.3 4.1-8.6 3.4-8.6-0.5-2.5 2.4-4.8 3.8-7.2 4.5l-2.3 3.9c-2.2 3.7-6.6 3.1-6.6 0.2 0-2.2 2.5-3.8 6.6-5.1l0.8-1.4c-1 0.7-2 1-2.9 1-2.4 0-3.3-2-2-4.2l4.2-7.2c1.3-2.2 3.6-3.5 5.2-3.5 1.9 0 3.2 1.6 3.2 2.9h1.7l-6.7 11.4c2.3-1 4.5-2.8 7-5.7l0.1-0.2 1.3-2 1.5-2.6c1.7-3 3.5-3.9 5.8-3.9 2.9 0 4.5 3 2.7 6.1l-2.8 4.8c1.5 0 3.2-0.7 4.5-2.2l0.2-0.2c2-2.3 3.8-4.8 5.1-6.7l-0.2-0.3c-1.1-1.4-0.9-3.1 0.8-4.6zm-14.7 5.4l-1.4 2.5-2.3 3.9c-1.8 3.1 1.6 3.5 3.1 1.1-0.2-0.3-0.3-0.7-0.3-1 0-1 0.8-1.8 1.8-1.8h0.1l2.2-3.7c1.1-1.8 0.6-3-0.4-3.1-0.8 0-1.8 0.6-2.8 2.1zm50.2 0l-1.5 2.5-2.2 3.9c-1.8 3.1 1.6 3.5 3 1.1h0.1c-0.2-0.3-0.3-0.7-0.3-1 0-1 0.7-1.8 1.7-1.8h0.2l2.2-3.7c1-1.8 0.5-3-0.4-3.1-0.8 0-1.9 0.6-2.8 2.1zm-11.5 0.3l-1.9 3.4c1.1 0.4 3.1 0.4 4.5-2l0.4-0.8c1.1-1.7 0.5-2.6-0.4-2.6-0.8 0.1-1.8 0.7-2.6 2zm-52.4 0l-4.2 7.3c-0.7 1.1-0.3 1.6 0.4 1.6 1.3 0 3.1-1.4 4.9-4.3l2.3-4c0.8-1.5 0.2-2.4-0.8-2.4-0.8 0-1.9 0.6-2.6 1.8zm39 0l-4.3 7.3c-0.6 1.1-0.3 1.6 0.4 1.6 1.3 0 3.1-1.4 4.9-4.3l2.3-4c0.9-1.5 0.2-2.4-0.8-2.4-0.8 0-1.8 0.6-2.5 1.8zm-45.9 15.7c0 0.8 1 1 1.7-0.1l1.3-2.5c-2.2 0.9-3 1.8-3 2.6zm39 0c0 0.8 1 1 1.6-0.1l1.4-2.5c-2.3 0.9-3 1.8-3 2.6zm-151.7-14.2h28.9v2h-28.9zm227 0h29v1.9h-29z"/><path fill-rule="evenodd" class="b" d="m322.7 37.4v7.7h-20.8v-44.7h20.8v7.6h-13.2v10.8h10.5v7.7h-10.5v10.9zm-32.8-37h7.6v44.7h-7.7v-22l-3 11.4h-7.4l-3-11.4v22h-7.6v-44.7h7.5l6.8 21.6zm-28.9 0c2.5 0 4.7 2.1 4.7 4.7v35.3c0 2.5-2.2 4.7-4.7 4.7h-11.4c-2.6 0-4.7-2.2-4.7-4.7v-35.3c0-2.6 2.1-4.7 4.7-4.7zm-3 7.6h-5.5v29.4h5.5zm-25 20.6l7.6-1.8v13.5c0 2.6-2.1 4.7-4.7 4.7h-11.4c-2.6 0-4.7-2.1-4.7-4.7v-35.3c0-2.6 2.1-4.7 4.7-4.7h11.4c2.6 0 4.7 2.1 4.7 4.7v9.1l-7.6 1.8v-7.9h-5.6v29.3h5.6zm-16.8 8.8v7.7h-18.3v-44.7h7.7v37zm-21.4 0v7.7h-20.8v-44.7h20.8v7.6h-13.2v10.8h10.5v7.7h-10.5v10.9zm-32.3-37h7.7l-1.2 44.7h-14.4l-2-18.5-2 18.5h-14.5l-1.2-44.7h7.7l0.6 37h0.8l4.8-37h7.5l4.9 37h0.8z"/><path fill-rule="evenodd" class="c" d="m380.7 213.9l25.5-73.9h25.2l25.6 73.9h-20.2l-3.7-13.3h-28.6l-3.8 13.3zm35.7-52.1l-7.6 24.5h20.1l-7.5-24.5q-0.2-0.4-0.3-0.9-0.2-0.4-0.3-0.9-0.2-0.4-0.3-0.9-0.2-0.4-0.3-0.9-0.1-0.5-0.2-0.9-0.1-0.5-0.2-1-0.1-0.5-0.2-1-0.1-0.4-0.2-0.9-0.2-0.7-0.4-1.3-0.1-0.7-0.2-1.3-0.1 0.6-0.3 1.3-0.2 0.6-0.3 1.3-0.1 0.2-0.1 0.4 0 0.2-0.1 0.4-0.1 0.4-0.2 0.8-0.1 0.5-0.2 0.9-0.1 0.4-0.2 0.8-0.1 0.4-0.2 0.9-0.1 0.4-0.2 0.8-0.1 0.4-0.2 0.8-0.1 0.4-0.2 0.8-0.1 0.4-0.2 0.8zm-117.7 52.1v-73.9h19.5l27.9 37.9q0.2 0.5 0.5 0.9 0.3 0.4 0.5 0.9 0.2 0.4 0.5 0.8 0.2 0.5 0.4 0.9 0.3 0.5 0.6 0.9 0.2 0.5 0.5 0.9 0.2 0.5 0.4 0.9 0.3 0.5 0.5 0.9l1.4 3.1q0.7 1.5 1.4 2.9 0-0.4-0.1-0.7 0-0.3 0-0.6-0.1-0.3-0.1-0.6-0.1-0.3-0.1-0.6-0.2-1.1-0.3-2.4 0-0.6-0.1-1.2 0-0.6-0.1-1.2 0-0.6-0.1-1.2 0-0.6 0-1.2-0.1-0.6-0.1-1.2 0-0.7 0-1.3 0-0.6 0-1.2 0-0.7 0-1.3v-36.3h19.3v73.9h-19.3l-28.1-38.2q-1.2-1.3-2.3-3.2-0.2-0.5-0.5-1-0.2-0.5-0.5-1-0.2-0.5-0.5-1-0.2-0.6-0.4-1.1-0.2-0.3-0.4-0.7-0.1-0.4-0.3-0.7-0.2-0.4-0.4-0.8-0.1-0.3-0.3-0.7-0.2-0.3-0.3-0.7-0.1-0.3-0.3-0.7-0.1-0.3-0.3-0.7-0.1-0.3-0.3-0.7 0.6 3.6 0.9 7.4 0.4 3.7 0.4 7.4v36.4zm-88-54.9q5.3-9.9 14.9-15.1 9.5-5.3 19.8-5.3 1.4 0 2.8 0.2 1.5 0.1 2.9 0.2 1.1 0.1 2.2 0.3 1 0.2 2.1 0.5 1.1 0.3 2.1 0.6 1 0.3 2.1 0.7 1 0.4 2.1 0.8 1 0.4 2.1 0.9 1 0.5 2 1.1 1 0.5 1.9 1.1 8.3 5.4 12.8 14.3 4.5 8.8 4.5 18.5 0 1.1-0.1 2.4 0 1.2-0.2 2.3-0.1 0.7-0.2 1.3-0.1 0.6-0.2 1.2-0.1 0.6-0.3 1.2-0.1 0.6-0.3 1.2-0.1 0.6-0.3 1.2-0.2 0.6-0.3 1.2-0.2 0.5-0.4 1.1-0.3 0.6-0.5 1.2-4.9 11.2-15.2 17.5-10.3 6.2-21.7 6.2-0.2 0-0.4-0.1-0.2 0-0.4 0-0.2 0-0.4 0-0.2 0-0.4-0.1h-1.5q-1-0.1-2-0.2-1-0.1-2-0.3-1-0.2-2-0.4-1-0.2-1.9-0.5-1-0.2-2-0.5-0.9-0.3-1.8-0.7-1-0.4-1.9-0.8-0.9-0.4-1.8-0.9-9.7-5.1-15.3-14.5-5.6-9.5-5.6-19.7 0-1.5 0.1-3 0.2-1.5 0.5-3.2 0.2-0.7 0.3-1.5 0.2-0.8 0.4-1.5 0.2-0.8 0.4-1.5 0.3-0.8 0.5-1.5 0.3-0.8 0.6-1.5 0.3-0.8 0.6-1.5 0.3-0.8 0.7-1.5 0.3-0.7 0.7-1.4zm52.8 26.6q0.4-1.2 0.6-2.5 0.4-1.3 0.5-2.5 0.1-0.8 0.1-1.7 0.1-0.8 0.1-1.5 0-0.1 0-0.3 0-0.2 0-0.4 0-0.1-0.1-0.3 0-0.2 0-0.4v-1.4q-0.6-5-3-9.6-2.5-4.6-6.8-7.2-1.1-0.6-2.3-1-1.2-0.5-2.3-0.9-0.3 0-0.6-0.1-0.3 0-0.6-0.1-0.3 0-0.6 0-0.2-0.1-0.5-0.1-0.3-0.1-0.6-0.1-0.3 0-0.6-0.1-0.3 0-0.6 0-0.3 0-0.6 0-5.9 0-10.9 3.7-5 3.7-6.9 9.9l-0.3 0.4v0.5q-0.1 0.3-0.1 0.5-0.1 0.3-0.2 0.6-0.1 0.3-0.1 0.5-0.1 0.3-0.2 0.6-0.2 1-0.4 2.2l-0.3 1.6v2.5q0 0.3 0.2 0.8 0.3 6.1 3.7 11.7 3.5 5.5 9.5 7.2l1.4 0.5q0.7 0.1 1.5 0.2l1.4 0.2h1.4q6.1 0 11-3.6 5-3.7 7.2-9.8zm-82.1 21.4q-5.5 3.7-11.9 5.1-6.4 1.4-12.9 1.7-0.4 0.1-0.9 0.1-0.5 0-0.9 0-0.5 0-1 0-0.4 0-0.9 0h-23.8v-73.9h25.1q1.9 0 3.6 0.1 6.3 0.3 12.3 1.7 1.5 0.4 3 0.9 1.5 0.5 2.9 1.1 1.4 0.7 2.8 1.4 1.3 0.8 2.6 1.7 6.5 4.6 10.1 12 3.6 7.4 4 15.3 0.2 0.7 0.2 1.4v2.9q-0.4 8.3-4 15.9-3.6 7.7-10.3 12.6zm-32.4-9.7q0.3 0 0.7 0.2h0.8q0.4 0 0.8 0.1h3.1q1.3-0.1 2.5-0.3 0.7 0 1.5-0.1 0.7-0.1 1.5-0.2 0.7-0.2 1.4-0.3 0.8-0.2 1.5-0.4 2.9-0.8 5.2-2.4 3.7-2.7 5.5-7.2 0.4-1.2 0.8-2.4 0.3-1.2 0.6-2.4 0.2-1.2 0.3-2.4 0.1-1.2 0.1-2.5v-0.9q0-0.5-0.1-0.9 0-1.1-0.2-2.2-0.2-1.1-0.4-2.2-0.3-1-0.7-2.1-0.3-1-0.8-2-1.8-4.2-5.1-6.6-0.6-0.5-1.2-0.9-0.7-0.4-1.4-0.8-0.6-0.3-1.4-0.6-0.7-0.2-1.4-0.4-0.8-0.2-1.5-0.3-0.8-0.2-1.5-0.3-0.8-0.1-1.6-0.1-0.7-0.1-1.5-0.1h-7.5zm-79.9 16.6v-74h45.4v16.2h-25.6v12.8h24.1v15.8h-24.1v12.6h25.6v16.6zm-59.4-23.8q0.1 0.1 0.1 0.2 0.1 0 0.2 0.1 3.1 3.5 7.1 6.5 3.9 2.9 9.1 3.1 0.1 0 0.2 0.2h0.3q0.1 0 0.3 0.1h1.2q0.6-0.1 1.1-0.3 0.5 0 0.9-0.2 0.5-0.1 0.9-0.3 0.4-0.2 0.9-0.4 0.4-0.2 0.8-0.5 1.7-1 2.6-2.5l0.3-0.5 0.2-0.4q0.2-0.8 0.4-1.5 0.1-0.7 0.1-1.3 0-3.2-2.8-5.2-0.7-0.6-1.4-1.1-0.6-0.5-1.4-0.9-0.7-0.4-1.5-0.8-0.7-0.3-1.5-0.6-0.3-0.1-0.6-0.2-0.3-0.1-0.6-0.2-0.3-0.1-0.6-0.2-0.3 0-0.7-0.1-0.2-0.1-0.5-0.2-0.3-0.1-0.6-0.1-0.2-0.1-0.5-0.2-0.3 0-0.6-0.1h-0.2q-0.1-0.1-0.2-0.1-1.4-0.4-2.8-0.8-1.4-0.5-2.7-1-1.4-0.6-2.7-1.2-1.3-0.7-2.5-1.4-5-3.2-6.9-9-0.1-0.3-0.1-0.6-0.1-0.3-0.2-0.6-0.1-0.3-0.2-0.6-0.1-0.3-0.2-0.6 0-0.3-0.1-0.7 0-0.3-0.1-0.6 0-0.4 0-0.7-0.1-0.3-0.1-0.7 0-0.1-0.1-0.2 0-0.1 0-0.2 0-0.1 0-0.2 0-0.1 0-0.2v-2.8q0.1-0.9 0.3-1.8 0.1-0.6 0.2-1.2 0.1-0.6 0.3-1.2 0.1-0.6 0.3-1.1 0.2-0.6 0.4-1.2 0.8-2.3 2.1-4.2 3.7-6.1 9.5-8.8 5.9-2.7 12.3-2.7 1.5 0 3 0.3 0.4 0 0.8 0 0.4 0.1 0.9 0.1 0.4 0.1 0.8 0.1 0.4 0.1 0.8 0.1 1 0.2 2.1 0.4 1 0.3 2.1 0.6 1 0.3 2 0.6 1 0.3 2 0.7 4.2 1.7 7.7 3.9l-6.4 14.3q-0.8-0.6-1.6-1.2-0.8-0.5-1.6-1-0.9-0.5-1.7-1-0.9-0.5-1.7-0.9-3.5-1.7-7.6-1.7h-0.9q-2.7 0.3-5 2.4-2.3 2-2.3 4.3v0.7q0.1 0.3 0.3 0.7 0.3 0.8 0.8 1.5 0.6 0.7 1.3 1.3 1.3 1 3.7 1.9 2.5 0.9 5.2 1.7 2.2 0.6 4.2 1.1 2.1 0.5 3.5 1 6.5 2.3 9.8 7.7 3.2 5.4 3.4 11.4v0.6q0 0.7-0.2 1.4v1.3q-0.7 6-3.9 11.5-3.1 5.4-8.5 8.3-0.5 0.3-1 0.5-0.5 0.2-1 0.4-0.5 0.2-1 0.4-0.5 0.2-1.1 0.4-0.5 0.1-1 0.2-0.5 0.2-1 0.3-0.6 0.1-1.1 0.3-0.5 0.1-1 0.2-0.5 0.1-0.9 0.2-0.4 0-0.9 0.1-0.4 0.1-0.8 0.1-0.5 0-0.9 0.1-0.4 0-0.9 0.1-0.4 0-0.8 0-0.4 0.1-0.8 0.1-0.5 0-0.9 0h-1.3q-6.9-0.2-13.7-3-6.7-2.9-11.9-7.7zm341.6 147.1q0-0.4 0.1-0.8 0.2-0.5 0.5-0.8 0.1-0.1 0.2-0.2 0.1-0.1 0.2-0.2 0.1 0 0.2-0.1 0.1-0.1 0.3-0.1 0.4-0.2 1-0.2 0.7 0 1.3 0.2 0.7 0.3 1.1 0.8 0.4 0.4 0.6 1 0.2 0.6 0.2 1.3 0 1.3-0.5 2.3-0.1 0.3-0.2 0.6-0.2 0.2-0.3 0.5-0.2 0.2-0.4 0.4-0.2 0.3-0.4 0.5-0.1 0.1-0.2 0.1-0.1 0.1-0.2 0.2-0.1 0.1-0.2 0.2-0.1 0.1-0.2 0.2-0.1 0-0.2 0.1-0.1 0.1-0.3 0.1-0.1 0.1-0.2 0.2-0.1 0-0.2 0.1-0.4 0.2-0.7 0.3-0.1 0.1-0.1 0.1-0.1 0-0.1 0-0.1 0-0.1 0.1-0.1 0-0.1 0l-1.4-2q0.4-0.1 0.9-0.3 0.4-0.2 0.8-0.6 0.1 0 0.2-0.1 0.1-0.1 0.2-0.2 0.1-0.1 0.2-0.2 0-0.1 0.1-0.2 0.3-0.5 0.3-1-1 0-1.7-0.6-0.7-0.6-0.7-1.7zm7.8 0q0-0.4 0.2-0.8 0.1-0.5 0.5-0.8 0.3-0.4 0.8-0.6 0.5-0.2 1.1-0.2 0.7 0 1.3 0.2 0.6 0.3 1 0.8 0.4 0.4 0.6 1 0.2 0.6 0.2 1.3 0 0.3 0 0.6 0 0.3-0.1 0.6 0 0.3-0.1 0.6-0.1 0.3-0.2 0.5-0.1 0.3-0.3 0.6-0.1 0.2-0.3 0.5-0.2 0.2-0.3 0.4-0.2 0.3-0.4 0.5-0.1 0.1-0.2 0.1-0.1 0.1-0.2 0.2-0.1 0.1-0.3 0.2-0.1 0.1-0.2 0.2-0.1 0-0.2 0.1-0.1 0.1-0.2 0.1-0.1 0.1-0.2 0.2-0.2 0-0.3 0.1-0.4 0.2-0.7 0.3 0 0.1-0.1 0.1 0 0-0.1 0 0 0-0.1 0.1 0 0-0.1 0l-1.3-2q0.4-0.1 0.8-0.3 0.5-0.2 0.9-0.6 0.4-0.3 0.6-0.7 0.3-0.5 0.3-1-0.2 0-0.4-0.1-0.2 0-0.5-0.1-0.2-0.1-0.4-0.2-0.2-0.1-0.4-0.2-0.7-0.6-0.7-1.7zm-264.6-58.7q0 0.5-0.1 0.9-0.1 0.1-0.1 0.2-0.1 0.1-0.2 0.2 0 0.1-0.1 0.2-0.1 0.1-0.1 0.2-0.2 0.2-0.5 0.3-0.2 0.2-0.4 0.3-0.3 0.1-0.5 0.1-0.3 0.1-0.6 0.1-0.1 0-0.3 0-0.2 0-0.3-0.1-0.2 0-0.3-0.1-0.2 0-0.4-0.1-0.1 0-0.3-0.1-0.1-0.1-0.2-0.2-0.2-0.1-0.3-0.2-0.1-0.1-0.2-0.2-0.1-0.1-0.2-0.2-0.1-0.2-0.2-0.3 0-0.1-0.1-0.3 0-0.1-0.1-0.2 0-0.2-0.1-0.4 0-0.1 0-0.3-0.1-0.1-0.1-0.3 0-0.2 0-0.3 0-1.3 0.5-2.4 0.1-0.2 0.2-0.5 0.1-0.3 0.3-0.5 0.2-0.2 0.4-0.5 0.1-0.2 0.4-0.4 0.1-0.1 0.2-0.2 0.1-0.1 0.2-0.2 0.1-0.1 0.2-0.1 0.1-0.1 0.2-0.2 0.1-0.1 0.2-0.1 0.1-0.1 0.2-0.2 0.1 0 0.3-0.1 0.1-0.1 0.2-0.1 0.4-0.2 0.7-0.4 0.3-0.1 0.4-0.1l1.3 1.9q-0.1 0.1-0.2 0.1-0.1 0.1-0.2 0.1-0.1 0.1-0.2 0.1-0.1 0-0.2 0.1-0.4 0.2-0.9 0.5-0.4 0.4-0.6 0.8-0.3 0.4-0.3 1 0.9 0 1.7 0.6 0.7 0.5 0.7 1.6zm-7.8 0q0 0.3-0.1 0.5 0 0.2-0.1 0.4-0.1 0.2-0.2 0.4-0.1 0.2-0.3 0.4-0.1 0.1-0.2 0.2-0.1 0-0.2 0.1-0.1 0.1-0.2 0.2-0.1 0-0.2 0.1-0.5 0.2-1.1 0.2-0.2 0-0.3 0-0.2 0-0.4-0.1-0.1 0-0.3-0.1-0.1 0-0.3-0.1-0.1 0-0.3-0.1-0.1-0.1-0.3-0.2-0.1-0.1-0.2-0.2-0.1-0.1-0.3-0.2-0.1-0.1-0.1-0.2-0.1-0.2-0.2-0.3-0.1-0.1-0.1-0.3-0.1-0.1-0.1-0.2-0.1-0.2-0.1-0.4-0.1-0.1-0.1-0.3 0-0.1 0-0.3 0-0.2 0-0.3 0-1.3 0.4-2.4 0.1-0.2 0.3-0.5 0.1-0.3 0.3-0.5 0.1-0.2 0.3-0.5 0.2-0.2 0.4-0.4 0.4-0.4 0.9-0.7 0.4-0.3 0.9-0.5 0.4-0.2 0.7-0.4 0.3-0.1 0.4-0.2l1.3 2q-0.4 0.2-0.8 0.4-0.5 0.2-0.9 0.5-0.1 0.1-0.2 0.2-0.1 0.1-0.2 0.2 0 0.1-0.1 0.2-0.1 0.1-0.2 0.2-0.2 0.4-0.3 1 1 0 1.8 0.6 0.7 0.5 0.7 1.6zm257.2 36.3h3.8l-11.8 20.6h-3.9zm-9.8 24.3c0 1.3-1 2.2-2.2 2.2-1.3 0-2.2-0.9-2.2-2.2 0-1.2 0.9-2.2 2.2-2.2 1.2 0 2.2 1 2.2 2.2zm-14 2.1c0 0-0.1 0.1-0.1 0.1-0.4 0-0.7 0-1 0-3.5 0-4.2-3-4.2-3l2.4-1.2c0 0 0.5 1.3 1.8 1.3 3.6 0 2.8-7 4.2-10.9-1.3 1.8-3.2 4.4-5.3 6.9q-0.1 0-0.1-0.1 0 0.1 0 0.1c-3.1 3.6-6.7 7-9.8 7-3.1 0-3.7-1.7-3.7-4.9v-3l-4.3 7.5h-3.8l2.1-3.7c-2.6 2.3-5.7 4.1-8.7 4.1-3.2 0-5.1-1.9-5.2-4.4-2.4 2.5-5.1 4.4-7.4 4.4-2.4 0-3.6-1.6-3.2-3.7-1.9 1.8-4.2 3.7-6.3 3.7-1.5 0-2.5-1-2.5-2.5-1.7 1.2-4.4 2.1-6.3 2.3 0 0-0.1 0.1-0.1 0.1-0.4 0-0.7 0.1-1.1 0.1-3.4 0-4.1-3.1-4.1-3.1l2.3-1.2c0 0 0.6 1.3 1.8 1.3 3.6 0 2.8-7 4.3-10.9-1.3 1.8-8.5 11-10.7 13.5-0.5-0.4-1.1-0.8-1.4-1.3 3.4-4 12.2-15.6 13.7-17.7l2.8 1.5c-2.3 4.8-2 10.4-3.2 14 0.8-0.6 2.4-1.2 3.2-2l7.3-12.7h3.8l-7.4 12.9c-0.5 0.8-1.4 2.2-0.5 2.6 0.8 0.3 3-1.1 5.8-3.7l6.8-11.8h3.7l-8 14.2c-0.9 1.4-0.4 2 0.4 2 1.7 0 4.3-2.5 7.1-5.6l0.2-0.3q0.1 0 0.3 0.1l3.7-6.4c1.6-2.7 4-4.3 7.1-4.3 3 0 5 2.6 3 6.1l-0.6 0.9h-3.1l0.6-0.9c2.2-4-1.6-4.6-3.8-0.8l-3.9 6.7c-1.7 3.1-0.3 4.5 2 4.5 2.6 0 6.1-2.5 8.8-5.6l0.3-0.3q0.1 0 0.2 0.1 0.1 0 0.2 0.1 0 0 0.1 0.1 0.1 0.1 0.2 0.1l10.8-18.7h3.7l-5.3 9.4c3.8-3.6 9.6-1.6 6 4.5l-1 1.7c-1.8 3.1-4.6 4.8-7.2 4.5v1.6c0 1.7 0.8 2.5 1.6 2.5 1.7 0 4.3-2.5 7.1-5.6l0.2-0.3q0 0 0.1 0 0 0-0.1 0c3.5-4 6.9-9 8.4-11.1l2.9 1.5c-2.3 4.8-2.1 10.4-3.3 14q0.6-0.5 1.2-0.9 0.6-0.5 1.2-1 0.6-0.6 1.1-1.1 0.6-0.6 1.1-1.1l0.2-0.3c0.6 0.1 1.2 0.7 1.4 1.3-2.8 3.3-6.6 6.3-10.5 6.8zm-9.3-10.7l1.8-3.1c1.4-2.3-1.6-4-6 2.1l-1.1 1.9c0.9 2.5 4.2 1.1 5.3-0.9zm-66.8 3.8c-3.1 3.7-6.7 7-9.8 7-3.1 0-4.2-2.6-2.6-5.4l4.9-8.5c1.6-2.8-1-3.7-6.7 3.5l-5.8 10.1h-3.8l2.5-4.4c-1.7 0.9-3.5 1.4-4.9 1.4h-0.9c-4.2 5.4-11.2 4.2-10.7-1.1-3.3 3.2-6.4 5.2-9.5 6.2l-2.9 4.9c-2.8 4.7-8.3 3.9-8.3 0.3 0-2.8 3.2-4.9 8.3-6.5l2.1-3.5c-1.7 1.5-3.8 3-5.6 3-1.9 0-2.9-1.3-2.4-3.4-2.2 2-4.4 3.4-6.5 3.4-3 0-4.1-2.6-2.5-5.4l4.9-8.5c1.6-2.8-1-3.7-6.7 3.5l-5.8 10.1h-3.8l1.4-2.4c-2 1.6-4 2.7-5.8 2.7-1.9 0-3.1-1-3.2-2.4-1.9 1.4-3.7 2.4-5.3 2.4-2.6 0-3.8-2-3-4.3-2.6 2.4-4.5 4.3-8.7 4.3-5.3 0-6.9-5.1-4.2-9.6l1.1-2c-3.1-1.6-4.8-4.5-4.8-7.5 0-2.6 1.2-5.1 3.9-7.1l1.2 2.2c-1.6 1.3-2.4 3.1-2.4 4.8 0 2.1 1.2 4.2 3.4 5.4l5.9-10.2c1.7-2.9 4.2-4.4 6.2-4.4 2.8 0 5 2.2 5 5.6 0 1.5-0.4 3.3-1.5 5.1-3 5.2-7.5 7.3-11.6 7.3-0.7 0-1.4-0.1-2.1-0.2l-1.1 1.9c-2.2 3.8-0.7 6.4 1.9 6.4 3.8 0 5.8-2.5 8.6-5.7l0.2-0.3c0.3 0.1 0.6 0.3 0.9 0.5l3.9-6.7c1.6-2.8 4.4-4.4 6.4-4.4 2.5 0 4.1 2.2 4 3.8h2.1l-6.1 10.7c-0.8 1.5-0.4 2.1 0.5 2.1 1.6 0 4.3-2.5 7-5.7l0.3-0.3q0 0.1 0.1 0.1 0 0 0 0 0.1 0.1 0.1 0.1 0.1 0 0.1 0l6.1-10.4h3.7l-1.4 2.5c1.9-2 3.6-2.9 5.3-2.9 2.1 0 3.6 2.1 2 5l-5.5 9.5c-0.8 1.5-0.4 2.1 0.5 2.1 1.6 0 4.3-2.5 7-5.7l0.3-0.3q0 0.1 0.1 0.1 0 0 0 0 0.1 0 0.1 0.1 0.1 0 0.1 0l6-10.4h3.8l-7.4 12.9c-0.4 0.8-1.4 2.2-0.4 2.6 0.7 0.3 2.9-1.2 5.9-3.9l6.6-11.6h3.8l-10.3 17.7c2.9-1.3 5.6-3.6 8.7-7.2l0.3-0.3q0 0.1 0.1 0.1 0 0 0 0 0.1 0 0.1 0.1 0.1 0 0.1 0l1.6-2.7 1.9-3.3c2.2-3.8 4.4-4.9 7.3-4.9 3.6 0 5.7 3.7 3.4 7.7l-3.6 6.1c1.9 0 4-0.9 5.7-2.8l0.3-0.3q0.1 0.1 0.1 0.1 0.1 0 0.1 0.1 0.1 0 0.2 0 0 0.1 0.1 0.1l6.1-10.5h3.7l-1.4 2.5c1.9-2 3.6-2.9 5.3-2.9 2.1 0 3.6 2.1 2 5l-5.5 9.5c-0.8 1.5-0.4 2.1 0.5 2.1 1.7 0 4.3-2.5 7-5.7l0.3-0.3c0.5 0.3 1.1 0.8 1.4 1.3zm-51.7 10.1c-2.9 1.1-3.8 2.2-3.8 3.2 0 1 1.3 1.2 2.1-0.2zm-27.5-15.8c1.8-3.4-2.2-4.3-4.3-0.8l-5.2 9.2c-0.9 1.5-0.4 2 0.4 2 1.6 0 3.8-1.7 6.1-5.3zm-20.4-0.1h0.7c5.8 0.9 10.2-6.4 10.2-9.9 0-1.4-0.6-2.3-2.1-2.3-1 0-2.3 0.8-3.4 2.7zm74.5 0.2c2.2-3.9-1.4-5.7-4-1.2l-1.9 3.1-2.8 5c-2.3 3.9 2 4.5 3.8 1.5l0.1-0.1c-0.3-0.4-0.4-0.8-0.4-1.3 0-1.2 1-2.2 2.2-2.2h0.2zm153.4-30.3c-3.1 3.7-6.7 7-9.8 7-1.9 0-3.1-1-3.3-2.5-1.8 1.5-3.7 2.5-5.2 2.5-2.3 0-3.5-1.4-3.3-3.3-2.1 1.9-4 3.3-6 3.3-3 0-4.2-2.6-2.6-5.4l4.9-8.5c1.7-2.8-0.9-3.8-6.7 3.5l-5.8 10h-3.8l1.4-2.4c-1.9 1.7-3.9 2.8-5.7 2.8-1.9 0-3.1-1-3.3-2.5-1.8 1.5-3.7 2.5-5.2 2.5-2.2 0-3.3-1.3-3.3-3-2 1.8-4.5 3-6.4 3-3 0-4.2-2.6-2.6-5.4l4-6.9c0.5-0.8 0.3-1.5-0.2-2.2l-0.5-0.6c-2.8 3.9-4.3 5.8-5.9 7.8q0 0 0 0 0.1 0.1 0.1 0.1 0 0.1 0 0.1 0.1 0.1 0.1 0.1c-4.1 4.8-8 7.5-11.9 8.7l-2.9 5c-2.7 4.7-8.3 3.9-8.3 0.3 0-2.9 3.2-4.9 8.3-6.5l1-1.7c-1.2 0.7-2.6 1.2-4.1 1.2-5.4 0-5.9-5.1-3.2-9.7l1.1-1.9c-3-1.6-4.7-4.5-4.7-7.6 0-2.5 1.2-5.1 3.8-7l1.3 2.2c-1.7 1.3-2.5 3-2.5 4.8 0 2.1 1.2 4.2 3.4 5.4l5.9-10.2c1.7-3 4.2-4.4 6.3-4.4 11.8 0 5.3 18-8.1 18q-0.3 0-0.6 0-0.3-0.1-0.5-0.1-0.3 0-0.6 0-0.2-0.1-0.5-0.1l-1 1.8c-2.3 3.9-1.8 6.5 0.8 6.5 2.9 0 5.2-2.5 7.2-6.1l0.4-0.6h3.8l-4.8 8.2c2.9-1.3 5.6-3.6 8.7-7.2q-0.1-0.1-0.3-0.3c2.5-2.9 4.8-6.1 6.4-8.5l-0.3-0.4c-1.3-1.7-1.2-3.9 1-5.8l2 2.1c-0.8 0.8-0.8 1.5-0.3 2.2l2.1 2.6c1.3 1.5 1.9 2.8 0.6 5.1l-3.8 6.6c-0.9 1.5-0.4 2.1 0.4 2.1 1.7 0 4.7-2.5 7.5-5.7l0.2-0.2 3.6-6.3c1.6-2.8 4.5-4.4 6.5-4.4 2.5 0 4.1 2.2 4 3.8h2.1l-6.1 10.7c-0.9 1.5-0.4 2.1 0.4 2.1 1.7 0 4.4-2.5 7.1-5.7l0.2-0.3q0.1 0 0.1 0.1 0.1 0 0.1 0 0.1 0 0.1 0.1 0 0 0.1 0l6-10.4h3.8l-1.4 2.4c1.9-1.9 3.6-2.8 5.2-2.8 2.1 0 3.7 2.1 2.1 4.9l-5.5 9.6c-0.9 1.5-0.4 2.1 0.4 2.1 1.7 0 4-2.5 6.7-5.7l0.3-0.3q0.1 0.1 0.2 0.1l3.7-6.3c1.6-2.8 4.4-4.4 6.5-4.4 1.5 0 2.8 0.9 3.4 2l5.6-9.6h3.8l-12.8 22.1c-0.9 1.5-0.4 2.1 0.4 2.1 1.7 0 4.3-2.5 7.1-5.7l0.2-0.3c0.5 0.2 1.2 0.8 1.4 1.3zm-44.2-5.8c1.8-3.4-2.2-4.3-4.2-0.8l-5.3 9.2c-0.9 1.5-0.4 2.1 0.4 2.1 1.6 0 3.8-1.7 6.1-5.3zm-41.1 15.8c-2.9 1.1-3.8 2.3-3.8 3.2 0 1.1 1.3 1.3 2.1-0.1zm0.8-16h0.8c9.6 2.2 14.1-12.2 8.1-12.2-1 0-2.3 0.8-3.4 2.7zm76.4 0.2h-0.1c1.9-3.4-2.1-4.4-4.2-0.8l-5.2 9.2c-0.9 1.5-0.4 2 0.4 2 1.6 0 3.9-1.7 6.2-5.5zm-113.7 8.6c-2.4 2.4-5 4.2-7.3 4.2-3 0-4.2-2.6-2.6-5.4l4.9-8.5c1.7-2.8-0.9-3.8-6.7 3.5l-5.8 10h-3.8l1.5-2.6c-2 1.8-4 3-5.9 3-3.1 0-4.2-2.6-2.6-5.4l7.6-13.1h-3.5l1.1-1.8h3.4l3.6-6.2h3.8l-3.6 6.2h3.1l-1 1.8h-3.1l-8.1 14.1c-0.9 1.5-0.4 2.1 0.4 2.1 1.7 0 4.3-2.5 7.1-5.7l0.2-0.3q0.1 0 0.1 0.1 0.1 0 0.1 0 0.1 0.1 0.1 0.1 0.1 0 0.1 0.1l10.7-18.5h3.8l-6.1 10.5c1.9-2 3.7-2.9 5.3-2.9 2.1 0 3.7 2.1 2 5l-5.4 9.5c-0.9 1.5-0.4 2.1 0.4 2.1 1.7 0 4.4-2.5 7.1-5.7l0.2-0.3q0.1 0 0.1 0.1l3.7-6.3c1.6-2.8 4.1-4.4 7.1-4.4 3.1 0 5.1 2.6 3 6.1l-0.5 1c-2.9 4.9-7.4 5.3-9.9 4.3l-0.3 0.7c-1.8 3-0.4 4.5 1.9 4.5 2.7 0 6.2-2.5 8.9-5.7l0.3-0.3c0.5 0.2 1.1 0.8 1.4 1.3-3.2 3.7-7.4 7-11.7 7-3.1 0-5-1.8-5.1-4.2zm5.7-5.1c1.4 0.5 3.9 0.5 5.7-2.5l0.5-1c2.3-3.9-1.6-4.5-3.7-0.8zm-117.3 9.3c-3.2 0-5.2-1.9-5.1-4.6-2.8 2.6-5.5 4.6-8.8 4.6-4.5 0-6.5-3.7-4.1-7.7l3.9-6.8c1.6-2.7 4.1-4.3 7.1-4.3 3.1 0 5.1 2.6 3 6.1l-0.5 0.9c-2.8 4.9-7.4 5.4-9.9 4.4l-0.3 0.6c-1.8 3.1-0.4 4.5 1.9 4.5 2.7 0 5.9-2.5 8.6-5.6l0.3-0.3q0 0 0.1 0 0 0 0.1 0.1 0 0 0.1 0 0 0 0 0.1l3.8-6.5c1.6-2.7 3.7-4.3 6.7-4.3 3.1 0 5.1 2.6 3 6.1l-0.5 0.9h-3.1l0.6-0.9c2.2-4-1.6-4.6-3.8-0.8l-3.9 6.7c-1.8 3.1-0.4 4.5 2 4.5 2.6 0 5.7-2.5 8.5-5.6l0.2-0.3q0.1 0 0.2 0 0 0.1 0.1 0.1 0.1 0.1 0.2 0.1 0 0.1 0.1 0.1l3.8-6.6c1.6-2.7 4.5-4.3 6.5-4.3 2.5 0 4.1 2.2 3.9 3.8h2.2l-6.1 10.7c-0.9 1.4-0.4 2 0.4 2 1.7 0 4.3-2.5 7.1-5.6l0.2-0.3q0.2 0 0.3 0.1l6-10.4h3.8l-7.4 12.9c-0.4 0.8-1.4 2.2-0.4 2.6 0.7 0.3 2.9-1.1 5.8-3.7l6.7-11.8h3.8l-8.1 14.2c-0.9 1.4-0.4 2 0.4 2 1.7 0 4.4-2.5 7.1-5.6l0.1-0.2q0-0.1-0.1-0.1c3.4-4 6.8-9 8.4-11.1l2.8 1.5c-2.3 4.8-2 10.4-3.2 14q0.6-0.5 1.2-0.9 0.6-0.5 1.2-1 0.5-0.6 1.1-1.1 0.5-0.6 1-1.1l0.3-0.3q0 0 0.1 0l3.6-6.3c1.6-2.7 4.1-4.3 7.1-4.3 3.1 0 5.1 2.6 3 6.1l-0.5 0.9c-2.8 4.9-7.4 5.4-9.9 4.4l-0.3 0.6c-1.8 3.1-0.4 4.5 1.9 4.5 2.7 0 6.2-2.5 8.9-5.6l0.3-0.3c0.5 0.2 1.1 0.8 1.4 1.3-3.1 3.6-7.4 7-11.7 7-3.1 0-5-1.9-5.1-4.4-2.4 2.2-5.1 3.9-7.9 4.2-0.1 0-0.1 0.1-0.1 0.1-0.4 0-0.7 0.1-1.1 0.1-3.4 0-4.1-3.1-4.1-3.1l2.3-1.2c0 0 0.5 1.3 1.8 1.3 3.6 0 2.8-7 4.3-10.9-1.3 1.7-3.2 4.3-5.2 6.7q0 0.1 0.1 0.2c-3.2 3.6-6.8 7-9.9 7-2.4 0-3.6-1.6-3.2-3.7-1.8 1.8-4.2 3.7-6.2 3.7-1.9 0-2.9-1.4-2.4-3.4-2.2 2-4.4 3.4-6.4 3.4-1.9 0-3.1-1.1-3.3-2.5-1.8 1.5-3.7 2.5-5.2 2.5-2.6 0-3.8-1.9-3.1-4.1-2.7 2.3-5.4 4.1-8.5 4zm12.7-2.3c1.6 0 3.8-1.7 6.1-5.3l3-5.1c1.8-3.5-2.2-4.4-4.2-0.8l-5.3 9.2c-0.9 1.4-0.4 2 0.4 2zm51.1-7c1.5 0.5 3.9 0.6 5.7-2.5l0.5-0.9c2.3-4-1.5-4.6-3.7-0.8zm-77.1 0c1.4 0.5 3.8 0.5 5.6-2.5l0.6-1c2.2-3.9-1.6-4.5-3.8-0.8zm-19.1 11.5c-13.3 0-15.6-14.6-7.7-19.7l1.6 2c-3.7 2.3-4.5 7.7-1.9 11.3q0.3-0.2 0.4-0.5 0.2-0.3 0.4-0.5 0.2-0.3 0.4-0.6 0.1-0.3 0.3-0.5l10.2-17.6c1.7-3 4.1-4.5 6.2-4.5 7.5 0 7 9.6-0.7 12.2 7.3 4.8 2.1 18.4-9.2 18.4zm3.7-17.8l-1-0.1-6.4 11c-0.5 0.9-1.2 1.9-1.9 2.6 1.5 0.8 3.2 1.4 5.5 1.4 9.1 0 12.7-13.1 3.8-14.9zm7.7-6c1.9-3.6-1.6-6.4-4.4-1.6l-3 5.2c3.8 0 6-0.9 7.4-3.6z"/></svg>